<svg width="242" height="32" viewBox="0 0 242 32" fill="none" xmlns="http://www.w3.org/2000/svg">
<path fill-rule="evenodd" clip-rule="evenodd" d="M183.749 7.34903C183.749 11.399 183.706 15.4274 183.77 19.4774C183.814 21.275 182.905 21.5565 181.411 21.5565C179.918 21.5565 179.225 21.0584 179.247 19.4557C179.312 14.7127 179.16 5.5731 179.268 3.62391C179.268 3.62391 179.333 2.45439 180.112 1.84797C181.931 0.6568 183.554 0.895033 184.896 1.50145C186.238 2.10787 186.693 3.06081 187.039 3.92712C188.402 7.39235 189.571 10.9442 190.978 14.9509C191.454 13.6081 191.779 12.6335 192.147 11.6806C193.143 9.05999 194.182 6.41775 195.177 3.77551C195.502 2.97417 195.675 2.25947 197.061 1.56642C198.446 0.873376 200.372 0.895036 201.498 1.76134C202.038 2.23758 202.372 2.90562 202.428 3.62391C202.493 9.03834 202.428 14.4744 202.493 19.9105C202.515 21.6215 201.454 21.5132 200.351 21.5348C199.247 21.5565 198.251 21.4482 198.294 19.8022C198.381 15.5284 198.309 11.233 198.078 6.91588C196.996 9.90465 195.913 12.8718 194.853 15.8605C194.312 17.3982 193.857 18.9576 193.273 20.4953C192.688 22.033 191.022 21.7514 191.022 21.7514C190.62 21.7814 190.217 21.7166 189.845 21.5624C189.472 21.4082 189.142 21.1688 188.879 20.8635C188.273 20.3653 185.48 11.6806 183.944 7.32738L183.749 7.34903Z" fill="white"/>
<path fill-rule="evenodd" clip-rule="evenodd" d="M228.792 7.84507C228.792 12.155 228.727 15.9451 228.835 19.7352C228.879 21.4678 227.926 21.5544 226.671 21.5328C225.416 21.5111 224.593 21.4461 224.615 19.8001C224.701 14.429 224.708 9.06513 224.636 3.70845C224.615 2.19241 225.48 1.62931 226.671 1.45604C229.333 1.04455 230.697 1.82423 231.931 4.22823C233.554 7.3686 235.199 10.509 237.125 13.5627C237.125 10.2491 237.169 4.94294 237.169 3.62182C237.169 3.03706 237.19 2.25738 237.602 1.8892C238.013 1.52102 239.03 1.41273 239.485 1.43439C240.329 1.43439 240.675 1.52102 241.065 1.82423C241.454 2.12743 241.541 2.49562 241.519 3.49187C241.498 4.48813 241.281 13.4977 241.281 18.6523C241.281 19.8001 241.433 21.013 239.983 21.4678C238.532 21.9226 236.195 21.5111 235.459 20.2766C234.723 19.0421 233.792 17.0929 232.926 15.4903C231.649 13.0862 230.329 10.7039 228.792 7.84507Z" fill="white"/>
<path fill-rule="evenodd" clip-rule="evenodd" d="M120.004 14.1472C120.004 10.4437 119.939 6.58865 120.047 2.75523C120.091 1.17422 121.476 1.43411 122.558 1.43411C123.64 1.43411 124.182 1.67234 124.16 2.88518C124.138 8.49453 124.117 14.0822 124.182 19.6916C124.182 20.9044 123.554 21.3376 122.58 21.5108C120.35 21.9223 118.792 21.121 117.71 19.0202C116.043 15.8798 114.42 12.7178 112.753 9.57741C112.537 9.1226 112.234 8.73276 111.671 7.84479C111.671 12.1547 111.627 15.9664 111.714 19.7999C111.736 21.186 111.238 21.5325 109.917 21.5758C108.597 21.6191 107.796 21.1643 107.84 19.54C107.948 14.5587 107.883 9.59907 107.883 4.63945C107.883 3.08009 107.818 2.2571 108.64 1.75898C109.463 1.26085 111.822 1.26085 112.904 1.80229C113.987 2.34373 114.246 3.21004 114.723 4.07635C116.606 7.47661 118.337 10.9418 120.004 14.1472Z" fill="white"/>
<path fill-rule="evenodd" clip-rule="evenodd" d="M171.627 13.5644C170.61 13.5644 169.809 13.4994 169.03 13.5644C167.602 13.6943 167.169 12.828 167.169 11.7018C167.169 10.5756 167.493 9.68763 168.944 9.73094C170.394 9.77426 172.169 9.73094 173.77 9.7526C175.372 9.77426 175.892 10.294 175.805 11.8534C175.697 13.8026 175.783 15.7734 175.783 17.7226C175.783 20.4082 175.805 20.4948 173.164 21.2095C170.177 21.9892 167.19 22.1408 164.247 20.8197C158.879 18.4157 157.926 12.0916 159.463 7.73843C160.545 4.61972 162.666 2.51892 165.675 1.78256C168.684 1.0462 172.017 0.872933 174.961 2.58389C176.541 3.38523 176.368 6.35234 175.285 6.65555C174.203 6.95875 172.623 5.65929 171.151 5.20448C166.822 3.8617 162.666 7.41357 163.381 12.4382C163.749 14.9938 164.766 17.2678 167.905 17.8093C171.043 18.3507 171.671 17.9609 171.649 14.9721C171.627 14.5823 171.627 14.1924 171.627 13.5644Z" fill="white"/>
<path fill-rule="evenodd" clip-rule="evenodd" d="M153.879 11.92C155.177 14.6705 156.433 17.2261 157.602 19.825C158.099 20.9729 157.645 21.5143 156.346 21.5577C153.251 21.6226 152.537 20.9729 151.541 16.9662C150.957 14.6488 149.615 13.501 147.364 13.6526C147.364 15.6234 147.255 17.6376 147.407 19.6301C147.558 21.6226 146.498 21.5793 145.156 21.536C143.814 21.4927 142.796 21.6226 142.84 19.7384C142.948 14.3023 142.905 8.86623 142.84 3.4518C142.84 2.41222 143.186 1.54592 144.117 1.56757C147.104 1.61089 150.783 1.28602 153.099 1.61089C156.151 2.30394 156.563 4.20982 156.714 6.5272C156.909 9.29938 156.151 10.6205 153.879 11.92ZM147.45 9.94911C150.459 10.339 152.169 9.62425 152.169 7.71837C152.169 4.36142 147.45 5.33602 147.45 5.33602V9.94911Z" fill="white"/>
<path fill-rule="evenodd" clip-rule="evenodd" d="M216.866 17.0709H209.94C209.701 17.8722 209.528 18.6303 209.269 19.3666C208.554 21.5324 207.753 21.9655 205.459 21.5324C204.247 21.2942 204.42 20.3629 204.658 19.6482C205.805 16.1829 207.061 12.7394 208.273 9.27412C209.009 7.15166 209.745 5.0292 210.459 2.90674C210.762 1.93215 211.173 1.3907 212.364 1.3907C216.238 1.3907 216.282 1.32573 217.559 4.94257C219.247 9.70727 222.169 18.1754 222.494 19.3016C222.818 20.4278 223.446 21.4241 220.87 21.5757C218.944 21.7057 218.121 20.861 217.559 19.15L216.866 17.0709ZM215.827 13.4974L213.403 6.39364L211.087 13.4974H215.827Z" fill="white"/>
<path fill-rule="evenodd" clip-rule="evenodd" d="M132.537 5.22701V9.40695C134.16 9.40695 135.762 9.45027 137.342 9.38529C138.922 9.32032 138.749 10.0567 138.706 11.0313C138.663 12.0059 138.836 12.9372 137.364 12.8722C135.892 12.8072 134.269 12.8722 132.58 12.8722V17.7235C134.485 17.7235 136.368 17.8318 138.251 17.7019C140.134 17.5719 140.005 18.7414 140.005 19.6511C140.005 20.5607 139.766 21.6436 138.208 21.5786C135.394 21.427 132.559 21.5136 129.723 21.5353C128.489 21.5569 127.97 20.9938 127.97 19.7593C127.992 14.2799 128.013 8.77888 127.948 3.29947C127.948 1.97835 128.641 1.48022 129.68 1.45856C132.689 1.39359 138.706 1.45856 138.706 1.45856C138.706 1.45856 139.961 1.76177 139.723 3.55936C139.788 4.55562 139.615 4.88049 138.619 5.22701H132.537Z" fill="white"/>
<path fill-rule="evenodd" clip-rule="evenodd" d="M84.6796 16.8581C85.1342 16.0785 88.619 17.6595 89.9826 17.7894C90.8484 17.9194 91.7575 17.4429 91.974 16.0785C92.1904 14.714 90.6969 13.9777 90.6969 13.9777C90.6969 13.9777 88.0346 12.4183 86.6277 11.552C85.2207 10.6857 84.1601 8.90975 84.1601 6.24585C84.1601 3.58195 87.0606 1.37286 89.6147 1.4595C91.4112 1.52447 94.6147 1.30789 95.5021 1.89265C96.3896 2.47741 96.606 4.49158 95.9567 5.35789C95.6753 5.70441 94.7878 5.70441 94.2251 5.61778C93.0562 5.46617 91.9307 4.98971 90.7835 4.94639C90.1342 4.94639 89.29 4.96805 88.9437 5.92099C88.5974 6.87393 89.3333 7.87018 89.961 8.32499C91.3246 9.29959 92.9913 9.81938 94.4415 10.7073C96.606 12.0501 97.5584 14.3458 97.1038 16.6849C96.6493 19.0239 94.1168 21.1897 92.2121 21.4712C90.7402 21.6878 85.0476 21.926 84.3766 20.2801C83.7056 18.6341 84.0086 17.248 84.6796 16.8581Z" fill="white"/>
<path fill-rule="evenodd" clip-rule="evenodd" d="M104.052 11.4642C104.052 14.3013 104.009 17.1168 104.073 19.9323C104.117 21.8166 102.84 21.5134 101.736 21.535C100.632 21.5567 99.528 21.6866 99.5496 19.954C99.5929 14.323 99.5929 8.67755 99.5496 3.01767C99.528 1.1551 100.783 1.45831 101.887 1.43665C102.991 1.415 104.117 1.28505 104.073 2.99601C104.009 5.83317 104.052 8.64867 104.052 11.4642Z" fill="white"/>
<path d="M6.33776 4.46875H1.48828V7.55416H6.33776V4.46875Z" fill="#ED3F28"/>
<path fill-rule="evenodd" clip-rule="evenodd" d="M1.77257 4.46936V3.51562L0 5.99199L1.75585 8.45162L1.77257 7.54808V4.46936Z" fill="#ED3F28"/>
<path d="M48.829 0H45.7354V19.0964H48.829V0Z" fill="#F7BF34"/>
<path d="M64.1802 0H61.3374V14.2893H64.1802V0Z" fill="#F7BF34"/>
<path d="M64.1802 11.2109H45.6519V14.2897H64.1802V11.2109Z" fill="#F7BF34"/>
<path d="M48.846 21.8555H45.769V26.7078H48.846V21.8555Z" fill="#F7BF34"/>
<path fill-rule="evenodd" clip-rule="evenodd" d="M45.7691 26.418H44.8159L47.2908 28.2083L49.7657 26.4347L48.846 26.418H45.7691Z" fill="#F7BF34"/>
<path d="M58.2943 24.6133H55.0669V29.9642H58.2943V24.6133Z" fill="#97CB57"/>
<path fill-rule="evenodd" clip-rule="evenodd" d="M55.0668 29.6523H54.0635L56.6554 31.6267L59.2474 29.6691L58.2942 29.6523H55.0668Z" fill="#97CB57"/>
<path d="M73.7954 18.4336H26.8892V21.2914H73.7954V18.4336Z" fill="#4E99CD"/>
<path d="M79.7486 18.3086H74.3975V21.3923H79.7486V18.3086Z" fill="#4E99CD"/>
<path fill-rule="evenodd" clip-rule="evenodd" d="M79.4312 21.3846V22.3551L81.4044 19.862L79.4479 17.4023L79.4312 18.3059V21.3846Z" fill="#4E99CD"/>
<path d="M58.1934 4.30078H55.1499V23.9745H58.1934V4.30078Z" fill="#97CB57"/>
<path d="M55.1502 4.5H7.04004V7.4549H55.1502V4.5Z" fill="#ED3F28"/>
</svg>
